<svg width="145" height="27" viewBox="0 0 145 27" fill="none" xmlns="http://www.w3.org/2000/svg">
<path d="M10.27 7.248C9.152 6.416 7.644 5.792 5.954 5.792C3.666 5.792 1.326 6.91 1.326 9.796C1.326 12.214 3.354 13.384 5.356 14.216C6.812 14.814 7.956 15.334 7.956 16.478C7.956 17.57 7.098 18.038 5.85 18.038C4.524 18.038 3.406 17.284 2.392 16.374L0.728 18.35C2.028 19.676 3.822 20.56 5.928 20.56C8.32 20.56 10.894 19.338 10.894 16.322C10.894 14.268 9.1 13.098 6.812 12.058C5.044 11.252 4.238 10.68 4.238 9.64C4.238 8.756 4.94 8.288 6.084 8.288C7.202 8.288 8.06 8.808 8.97 9.38L10.27 7.248ZM13.805 6.052V26.332H16.743V19C17.783 19.962 19.213 20.56 20.903 20.56C24.907 20.56 27.117 17.83 27.117 13.28C27.117 8.782 25.245 5.792 20.929 5.792C19.317 5.792 17.835 6.338 16.743 7.482V6.052H13.805ZM20.695 8.288C23.373 8.288 24.127 10.81 24.127 13.28C24.127 15.646 23.243 18.012 20.565 18.012C18.927 18.012 17.679 17.336 16.743 16.374V10.238C17.679 9.068 19.005 8.288 20.695 8.288ZM32.0836 9.51C33.0196 8.834 34.2676 8.418 35.6456 8.418C37.4916 8.418 38.1676 9.458 38.2456 10.706H36.5036C32.0576 10.706 29.2496 12.292 29.2496 15.776C29.2496 18.74 31.6416 20.56 34.3456 20.56C35.9576 20.56 37.4136 19.884 38.3236 18.532C38.4016 19.026 38.5056 19.858 38.6616 20.3H41.5476C41.2616 19.39 41.1576 18.246 41.1576 17.232V11.148C41.1576 7.768 39.4156 5.87 35.7756 5.87C34.0336 5.87 32.3436 6.338 30.9656 7.274L32.0836 9.51ZM38.2196 15.022C38.2196 16.556 36.8936 17.986 34.7356 17.986C33.3316 17.986 32.1876 17.18 32.1876 15.672C32.1876 13.904 33.5656 13.254 36.7896 13.254H38.2196V15.022ZM54.2825 16.868C53.4505 17.648 52.2285 18.038 50.9025 18.038C48.7185 18.038 46.4825 16.478 46.4825 13.254C46.4825 10.29 48.1205 8.288 50.8505 8.288C52.0725 8.288 53.1125 8.652 54.1005 9.25L55.2965 6.988C53.9705 6.234 52.4885 5.792 50.8505 5.792C46.3785 5.792 43.5445 8.73 43.5445 13.228C43.5445 17.336 46.3265 20.56 50.7985 20.56C52.7225 20.56 54.3865 19.988 55.6605 18.792L54.2825 16.868ZM68.5648 17.18C67.3688 17.726 65.9128 18.038 64.5868 18.038C62.1688 18.038 60.6608 16.66 60.2708 14.216H70.0468C70.1248 13.748 70.1768 13.202 70.1768 12.63C70.1768 9.172 68.1488 5.792 63.9108 5.792C59.2308 5.792 57.2808 9.12 57.2808 13.54C57.2808 17.882 60.0368 20.56 64.4828 20.56C66.2768 20.56 67.9408 20.17 69.3188 19.442L68.5648 17.18ZM60.4008 11.72C60.5308 9.9 61.6748 8.288 63.8328 8.288C66.0428 8.288 67.0308 10.03 67.2128 11.72H60.4008ZM81.5161 7.248C80.3981 6.416 78.8901 5.792 77.2001 5.792C74.9121 5.792 72.5721 6.91 72.5721 9.796C72.5721 12.214 74.6001 13.384 76.6021 14.216C78.0581 14.814 79.2021 15.334 79.2021 16.478C79.2021 17.57 78.3441 18.038 77.0961 18.038C75.7701 18.038 74.6521 17.284 73.6381 16.374L71.9741 18.35C73.2741 19.676 75.0681 20.56 77.1741 20.56C79.5661 20.56 82.1401 19.338 82.1401 16.322C82.1401 14.268 80.3461 13.098 78.0581 12.058C76.2901 11.252 75.4841 10.68 75.4841 9.64C75.4841 8.756 76.1861 8.288 77.3301 8.288C78.4481 8.288 79.3061 8.808 80.2161 9.38L81.5161 7.248ZM87.9891 0.279999H85.0511V20.3H87.9891V10.42C88.9251 9.25 90.3551 8.288 92.0451 8.288C93.6571 8.288 94.3851 9.614 94.3851 11.434V20.3H97.3231V11.226C97.3231 7.768 95.8671 5.792 92.2531 5.792C90.4331 5.792 88.9511 6.624 87.9891 7.742V0.279999ZM111.246 17.18C110.05 17.726 108.594 18.038 107.268 18.038C104.85 18.038 103.342 16.66 102.952 14.216H112.728C112.806 13.748 112.858 13.202 112.858 12.63C112.858 9.172 110.83 5.792 106.592 5.792C101.912 5.792 99.9625 9.12 99.9625 13.54C99.9625 17.882 102.718 20.56 107.164 20.56C108.958 20.56 110.622 20.17 112 19.442L111.246 17.18ZM103.082 11.72C103.212 9.9 104.356 8.288 106.514 8.288C108.724 8.288 109.712 10.03 109.894 11.72H103.082ZM126.278 17.18C125.082 17.726 123.626 18.038 122.3 18.038C119.882 18.038 118.374 16.66 117.984 14.216H127.76C127.838 13.748 127.89 13.202 127.89 12.63C127.89 9.172 125.862 5.792 121.624 5.792C116.944 5.792 114.994 9.12 114.994 13.54C114.994 17.882 117.75 20.56 122.196 20.56C123.99 20.56 125.654 20.17 127.032 19.442L126.278 17.18ZM118.114 11.72C118.244 9.9 119.388 8.288 121.546 8.288C123.756 8.288 124.744 10.03 124.926 11.72H118.114ZM130.805 6.052V26.332H133.743V19C134.783 19.962 136.213 20.56 137.903 20.56C141.907 20.56 144.117 17.83 144.117 13.28C144.117 8.782 142.245 5.792 137.929 5.792C136.317 5.792 134.835 6.338 133.743 7.482V6.052H130.805ZM137.695 8.288C140.373 8.288 141.127 10.81 141.127 13.28C141.127 15.646 140.243 18.012 137.565 18.012C135.927 18.012 134.679 17.336 133.743 16.374V10.238C134.679 9.068 136.005 8.288 137.695 8.288Z" fill="#343434"/>
</svg>
