<svg width="22" height="24" viewBox="0 0 22 24" fill="none" xmlns="http://www.w3.org/2000/svg">
<path d="M7.49996 17.8333V19C7.49996 19.9283 7.86871 20.8185 8.52508 21.4749C9.18146 22.1313 10.0717 22.5 11 22.5C11.9282 22.5 12.8185 22.1313 13.4748 21.4749C14.1312 20.8185 14.5 19.9283 14.5 19V17.8333M8.66663 3.83333C8.66663 3.21449 8.91246 2.621 9.35004 2.18342C9.78763 1.74583 10.3811 1.5 11 1.5C11.6188 1.5 12.2123 1.74583 12.6499 2.18342C13.0875 2.621 13.3333 3.21449 13.3333 3.83333C14.6731 4.46687 15.8153 5.45305 16.6374 6.68618C17.4594 7.91932 17.9305 9.35292 18 10.8333V14.3333C18.0878 15.0587 18.3446 15.7532 18.7499 16.3611C19.1552 16.9691 19.6975 17.4733 20.3333 17.8333H1.66663C2.30239 17.4733 2.84474 16.9691 3.25001 16.3611C3.65529 15.7532 3.91216 15.0587 3.99996 14.3333V10.8333C4.06945 9.35292 4.54048 7.91932 5.36257 6.68618C6.18466 5.45305 7.32682 4.46687 8.66663 3.83333Z" stroke="black" stroke-width="2" stroke-linecap="round" stroke-linejoin="round"/>
</svg>
